<svg xmlns="http://www.w3.org/2000/svg" width="4320" height="2112" fill="none" viewBox="0 0 4320 2112"><path fill="url(#a)" fill-rule="evenodd" d="M3868.63 1339.5c103.45 0 348.75-4.34 448.37 0V0H0v2101.86c126.206 6.55 257.394 10.14 393.362 10.14 1559.798 0 2128.168-772.5 3475.268-772.5" clip-rule="evenodd"/><path fill="url(#b)" d="M4320 0v1957.61s-534-398.72-1218-398.72S2056.5 2112 1264.5 2112 0 1639.84 0 1639.84V0z"/><mask id="c" width="4320" height="2112" x="0" y="0" maskUnits="userSpaceOnUse" style="mask-type:luminance"><path fill="#fff" d="M4320 0v1957.61s-534-398.72-1218-398.72S2056.5 2112 1264.5 2112 0 1639.84 0 1639.84V0z"/></mask><g fill="#fff" mask="url(#c)"><circle cx="2682" cy="1902" r="786" opacity=".05"/><circle cx="768" cy="-315" r="786" opacity=".02"/></g><defs><linearGradient id="a" x1="-1999.3" x2="-158.148" y1="1313.49" y2="4769.17" gradientUnits="userSpaceOnUse"><stop stop-color="#52b4da"/><stop offset="1" stop-color="#1e3e85"/></linearGradient><linearGradient id="b" x1="-1934.13" x2="-54.415" y1="1372.09" y2="4789.43" gradientUnits="userSpaceOnUse"><stop stop-color="#1e3e85"/><stop offset="1" stop-color="#336da6"/></linearGradient></defs></svg>