<svg width="22" height="22" viewBox="0 0 22 22" fill="none" xmlns="http://www.w3.org/2000/svg">
<path fill-rule="evenodd" clip-rule="evenodd" d="M10.3297 8.20004V9.33138C11.3173 7.36528 15.2003 7.33195 15.3316 10.1814L15.335 10.3314V15.3314L13.3304 15.3327V11.332C13.3304 8.55542 10.4393 9.31046 10.3327 11.2287L10.3297 11.3307V15.3327H8.33435V8.20004H10.3297V9.33138V8.20004ZM7.32871 8.33008V15.3314H5.33337V8.33008H7.32871ZM6.33351 6C6.88484 6 7.33151 6.44667 7.33151 6.998C7.33151 7.54867 6.88484 7.99533 6.33351 7.99533C5.78284 7.99533 5.33617 7.54867 5.33617 6.998C5.33617 6.44667 5.78284 6 6.33351 6Z" fill="#DFE1F2"/>
</svg>
