<svg width="18" height="18" viewBox="0 0 18 18" fill="none" xmlns="http://www.w3.org/2000/svg">
<g clip-path="url(#clip0_3583_43)">
<path d="M17.325 12.7499C17.25 12.7499 17.25 12.7499 17.325 12.7499C17.1 12.5999 16.95 12.5999 16.8 12.5249H16.725C15.975 12.2999 15.3 11.7749 14.775 11.0999C14.475 10.7249 14.25 10.2749 14.1 9.8999C14.025 9.7499 14.1 9.6749 14.025 9.6749C14.025 9.6749 14.025 9.6749 14.1 9.5999C14.25 9.4499 14.475 9.2999 14.7 9.2249C15.075 9.0749 15.45 8.9249 15.825 8.6249C15.9 8.5499 15.975 8.4749 16.05 8.3249C16.125 8.0999 16.125 7.8749 16.05 7.6499C15.75 7.4999 15.525 7.3499 15.45 7.2749C15.225 7.1249 14.85 7.1249 14.55 7.1999C14.475 7.1999 14.4 7.2749 14.325 7.2749C14.25 7.2749 14.175 7.3499 14.1 7.3499H14.025C13.95 7.3499 13.875 7.3499 13.8 7.3499C13.8 7.1999 13.8 7.0499 13.8 6.8249C13.8 6.6749 13.8 6.5249 13.8 6.3749V6.2999C13.8 5.6999 13.8 5.0999 13.725 4.5749V4.4999C13.5 3.4499 12.825 2.4749 11.85 1.7249C11.175 1.2749 10.425 0.974902 9.59996 0.899902C9.37496 0.899902 9.14995 0.899902 8.92496 0.899902H8.77496C7.94996 0.899902 6.74996 1.0499 5.69995 1.8749C5.02495 2.3999 4.49996 3.0749 4.19995 3.8249C4.04995 4.7249 4.04996 5.5499 4.12496 6.2249V6.5999C4.12496 6.8999 4.12496 7.1249 4.12496 7.3499C4.04996 7.3499 3.89996 7.3499 3.82495 7.2749C3.74995 7.2749 3.67495 7.2749 3.52495 7.2749C3.44995 7.2749 3.37496 7.1999 3.37496 7.1999H3.29996C2.99996 7.1249 2.69996 7.1999 2.54996 7.3499C2.54996 7.3499 2.54996 7.3499 2.47496 7.3499C2.17496 7.5749 2.02496 7.7999 2.02496 8.0999C2.02496 8.0999 2.02496 8.1749 2.02496 8.2499C2.02496 8.4749 2.17496 8.6249 2.32495 8.7749C2.39996 8.8499 2.47496 8.8499 2.47496 8.9249L2.54996 8.9999C2.84996 9.2249 3.22495 9.2999 3.52495 9.4499L3.74996 9.3749C3.97496 9.4499 4.04996 9.5999 4.04996 9.5999C4.12496 9.8249 3.89995 10.1249 3.89995 10.1999C3.52495 10.9499 2.99995 11.5499 2.32495 11.9999C1.94995 12.2249 1.57496 12.3749 1.19996 12.5249H1.12496C0.974955 12.5249 0.749955 12.5999 0.524955 12.8999C0.524955 12.8999 0.449955 12.9749 0.449955 13.0499C0.374955 13.3499 0.449955 13.5749 0.599955 13.7249C0.674955 13.8749 0.824955 13.9499 0.899955 13.9499C1.27496 14.1749 1.72496 14.2499 2.09996 14.3999H2.17496C2.17496 14.3999 2.17496 14.3999 2.24996 14.3999L2.47496 14.4749C2.54996 14.4749 2.69995 14.5499 2.77496 14.5499C2.77496 14.6249 2.84996 14.7749 2.84996 14.8499C2.84996 14.9999 2.92496 15.0749 2.92496 15.2249C2.84996 15.5249 2.99996 15.6749 3.22496 15.7499C3.44996 15.8249 3.59996 15.7499 3.67496 15.7499C4.27496 15.6749 4.87496 15.5999 5.32495 15.6749C5.69995 15.7499 6.07496 16.0499 6.52496 16.2749C6.67496 16.3499 6.82496 16.4249 6.97496 16.5749C7.42496 16.8749 7.87496 17.0999 8.54996 17.0999C8.69995 17.0999 8.77495 17.0999 8.92496 17.0999C9.22496 17.0999 9.52496 17.0999 9.82496 17.0249C10.2 17.0249 10.575 16.8749 10.875 16.6499C11.1 16.4999 11.325 16.3499 11.55 16.1999C11.925 15.9749 12.225 15.7499 12.6 15.5999C12.675 15.5999 12.825 15.5249 13.05 15.5249H13.2C13.65 15.5249 14.175 15.5249 14.625 15.5999H14.775C14.925 15.5999 15.075 15.5249 15.15 15.3749C15.225 15.2999 15.225 15.2249 15.3 15.1499L15.375 14.9249C15.45 14.7749 15.45 14.5499 15.525 14.5499H15.6H15.675C16.125 14.4749 16.5 14.3999 16.8 14.2499L16.95 14.1749H17.025C17.175 14.0999 17.4 14.0249 17.625 13.7249C17.7 13.5749 17.775 13.3499 17.775 13.1999C17.55 13.0499 17.475 12.8999 17.325 12.7499Z" fill="#DCDEF1"/>
</g>
<defs>
<clipPath id="clip0_3583_43">
<rect width="18" height="18" fill="white"/>
</clipPath>
</defs>
</svg>
