<svg width="22" height="22" viewBox="0 0 22 22" fill="none" xmlns="http://www.w3.org/2000/svg">
<path d="M16.8643 5.93419L17.8656 5.49318C18.0859 5.39614 18.3333 5.55749 18.3333 5.79823C18.3333 6.17859 18.1798 6.92165 17.7322 8.05952C17.6316 9.96818 16.7312 12.8013 15.1223 14.755C12.6563 17.7497 8.87265 18.5503 3.65808 16.3711C3.32324 16.2312 3.42146 15.7327 3.78437 15.7302C5.102 15.7214 6.37443 15.4118 7.52783 14.8376C6.3933 14.5537 5.49543 13.7132 5.07368 12.5425C5.06736 12.525 5.0626 12.5074 5.05931 12.4898L4.92969 12.4142C3.77729 11.7081 3.01523 10.3353 3.07082 8.80608L3.30591 8.67956C2.73194 7.5194 2.95598 6.05693 3.80157 5.33534C3.91988 5.23438 4.0923 5.22865 4.21704 5.32155C6.11857 6.73763 7.38986 7.36892 9.68467 7.97327C9.98834 4.4489 14.0564 2.98419 16.8643 5.93419Z" fill="#DFE1F2"/>
</svg>
